HIERARCHY
ROOT Hips
{
	OFFSET 0.000000 0.000000 0.000000
	CHANNELS 6 Xposition Yposition Zposition Zrotation Yrotation Xrotation 
	JOINT LHipJoint
	{
		OFFSET 0.069520 -0.091406 -0.006815
		CHANNELS 3 Zrotation Yrotation Xrotation
		JOINT LeftLeg
		{
			OFFSET 0.034277 -0.375199 -0.004496
			CHANNELS 3 Zrotation Yrotation Xrotation
			JOINT LeftFoot
			{
				OFFSET -0.013596 -0.397961 -0.043693
				CHANNELS 3 Zrotation Yrotation Xrotation
				JOINT LeftToeBase
				{
					OFFSET 0.026358 -0.055791 0.119288
					CHANNELS 3 Zrotation Yrotation Xrotation
					End Site
					{
						OFFSET 0.000000 0.000000 0.000000
					}
				}
			}
		}
	}
	JOINT RHipJoint
	{
		OFFSET -0.067670 -0.090522 -0.004320
		CHANNELS 3 Zrotation Yrotation Xrotation
		JOINT RightLeg
		{
			OFFSET -0.038290 -0.382569 -0.008850
			CHANNELS 3 Zrotation Yrotation Xrotation
			JOINT RightFoot
			{
				OFFSET 0.015774 -0.398415 -0.042312
				CHANNELS 3 Zrotation Yrotation Xrotation
				JOINT RightToeBase
				{
					OFFSET -0.025372 -0.048144 0.123348
					CHANNELS 3 Zrotation Yrotation Xrotation
					End Site
					{
						OFFSET 0.000000 0.000000 0.000000
					}
				}
			}
		}
	}
	JOINT LowerBack
	{
		OFFSET -0.002533 0.108963 -0.026696
		CHANNELS 3 Zrotation Yrotation Xrotation
		JOINT Spine1
		{
			OFFSET 0.005487 0.135180 0.001092
			CHANNELS 3 Zrotation Yrotation Xrotation
			JOINT Spine2
			{
				OFFSET 0.001457 0.052922 0.025425
				CHANNELS 3 Zrotation Yrotation Xrotation
				JOINT Neck
				{
					OFFSET -0.002778 0.213870 -0.042857
					CHANNELS 3 Zrotation Yrotation Xrotation
					JOINT Neck1
					{
						OFFSET 0.005152 0.064970 0.051349
						CHANNELS 3 Zrotation Yrotation Xrotation
						End Site
						{
							OFFSET 0.000000 0.000000 0.000000
						}
					}
				}
				JOINT LeftShoulder
				{
					OFFSET 0.078845 0.121749 -0.034090
					CHANNELS 3 Zrotation Yrotation Xrotation
					JOINT LeftArm
					{
						OFFSET 0.090977 0.030469 -0.008868
						CHANNELS 3 Zrotation Yrotation Xrotation
						JOINT LeftForeArm
						{
							OFFSET 0.259612 -0.012772 -0.027456
							CHANNELS 3 Zrotation Yrotation Xrotation
							JOINT LeftHand
							{
								OFFSET 0.249234 0.008986 -0.001171
								CHANNELS 3 Zrotation Yrotation Xrotation
								End Site
								{
									OFFSET 0.000000 0.000000 0.000000
								}
							}
						}
					}
				}
				JOINT RightShoulder
				{
					OFFSET -0.081759 0.118833 -0.038615
					CHANNELS 3 Zrotation Yrotation Xrotation
					JOINT RightArm
					{
						OFFSET -0.096012 0.032551 -0.009143
						CHANNELS 3 Zrotation Yrotation Xrotation
						JOINT RightForeArm
						{
							OFFSET -0.253742 -0.013329 -0.021401
							CHANNELS 3 Zrotation Yrotation Xrotation
							JOINT RightHand
							{
								OFFSET -0.255298 0.007772 -0.005559
								CHANNELS 3 Zrotation Yrotation Xrotation
								End Site
								{
									OFFSET 0.000000 0.000000 0.000000
								}
							}
						}
					}
				}
			}
		}
	}
}
MOTION
Frames: 11
Frame Time: 0.050000
0.000000 0.903404 0.000000 0.224726 -21.293799 1.208871 8.336136 3.202029 -41.640963 -7.185595 2.889390 21.938364 10.643608 19.546838 7.523100 0.000000 0.000000 0.000000 -1.408736 -0.186887 5.463351 1.456359 0.950494 16.158659 -7.147089 -4.171485 -18.474531 0.000000 0.000000 0.000000 1.829206 -0.394476 18.730283 -1.353278 0.290673 -16.573396 4.024388 16.473316 23.523515 2.377525 1.136740 -27.007534 0.000000 0.000000 0.000000 -27.114214 -8.409399 2.102946 -47.776538 1.212104 -7.475879 -8.962391 -30.668920 3.705715 0.000000 0.000000 0.000000 20.473900 18.734867 10.182567 46.886211 25.045829 3.060659 -5.101308 32.699971 0.147807 0.000000 0.000000 0.000000 
-0.007525 0.889345 0.078016 -0.789315 -25.673398 2.174774 11.882314 6.221012 -43.228695 -6.141688 1.658158 11.793129 10.055176 17.300768 14.871053 0.000000 0.000000 0.000000 -2.572289 -0.006120 9.306013 -0.987433 1.655285 17.109587 -6.463278 1.265500 -19.312071 0.000000 0.000000 0.000000 0.031679 0.148448 20.354162 0.078173 0.060769 -23.331065 7.851685 18.838205 28.678428 -0.721091 3.023619 -31.269870 0.000000 0.000000 0.000000 -30.996903 -7.844075 1.984963 -45.664842 4.611492 -8.723997 -11.571110 -28.988115 4.238252 0.000000 0.000000 0.000000 20.711230 19.123093 10.376931 46.887596 26.824167 3.395052 -2.683467 36.923675 1.001635 0.000000 0.000000 0.000000 
-0.015033 0.871467 0.161754 -0.143624 -26.788572 2.227211 10.493760 6.560882 -46.364737 -6.317658 2.043947 15.429247 11.529028 19.667835 12.324563 0.000000 0.000000 0.000000 -6.241968 0.999185 14.907639 0.743900 1.119051 15.851198 -5.019343 3.302145 -16.905349 0.000000 0.000000 0.000000 -2.262986 0.641506 20.022331 2.139354 -0.613492 -20.950243 4.708179 19.734468 26.035713 0.707661 2.386456 -32.213441 0.000000 0.000000 0.000000 -30.664550 -8.149572 1.921058 -44.122210 6.256424 -8.720418 -9.453014 -23.974038 2.942504 0.000000 0.000000 0.000000 23.440514 20.216490 11.668928 43.301536 29.511922 3.931901 -2.564977 39.062484 1.085960 0.000000 0.000000 0.000000 
-0.020435 0.861309 0.248310 -0.374665 -27.991288 2.811697 10.184502 7.149015 -48.371303 -8.576108 4.083314 24.738606 11.310945 19.245013 12.959522 0.000000 0.000000 0.000000 -7.687959 1.655923 17.330247 -0.642827 1.866189 19.362020 -3.889080 1.476987 -12.161937 0.000000 0.000000 0.000000 -4.607673 1.220793 19.995018 0.533623 -0.332180 -18.636932 5.604399 17.940740 25.358831 0.702097 2.005800 -31.839933 0.000000 0.000000 0.000000 -30.309189 -9.703663 3.875984 -44.091915 4.461123 -8.293460 -9.068903 -20.097612 2.397219 0.000000 0.000000 0.000000 22.229522 23.649583 12.764622 42.632568 29.427136 4.085475 -5.483956 41.718638 -0.057444 0.000000 0.000000 0.000000 
-0.022361 0.862039 0.332521 0.456410 -27.289609 4.666607 7.064440 6.747559 -54.947778 -8.008009 5.830351 38.306616 10.087583 17.855839 13.164377 0.000000 0.000000 0.000000 -10.305526 1.857479 12.457887 -0.252976 3.864349 31.471457 0.500230 1.599048 -0.337416 0.000000 0.000000 0.000000 -8.386998 2.161762 19.935473 1.470978 -0.562948 -17.969801 6.295978 15.722657 26.698608 0.968971 1.752982 -35.430518 0.000000 0.000000 0.000000 -31.602171 -13.053242 7.003251 -41.930630 -0.194194 -6.667967 -9.597636 -17.435932 2.133619 0.000000 0.000000 0.000000 20.550836 23.965446 12.270594 42.614242 28.210886 3.644314 -7.365090 45.829311 -0.858719 0.000000 0.000000 0.000000 
-0.021522 0.873425 0.409961 0.676678 -25.271562 6.271180 3.777389 4.191258 -55.403316 -6.736034 5.688483 42.698240 11.432808 20.620324 8.374141 0.000000 0.000000 0.000000 -9.657721 1.080249 2.530760 2.410414 7.066567 50.955295 1.943847 -3.322637 12.134477 0.000000 0.000000 0.000000 -9.843685 2.865860 22.250306 2.957695 -0.843951 -18.412420 4.841161 12.625822 26.194662 0.122922 1.885902 -35.786493 0.000000 0.000000 0.000000 -30.124202 -16.084228 9.651980 -40.641348 -5.281898 -5.050039 -9.543098 -19.596257 2.392202 0.000000 0.000000 0.000000 19.089454 25.676723 12.590516 42.054970 25.893896 2.870538 -10.498422 47.964228 -2.398536 0.000000 0.000000 0.000000 
-0.021329 0.890672 0.483493 0.539671 -20.093119 7.800069 0.901202 0.578590 -51.692411 -6.076177 4.625228 41.651316 10.811729 20.725601 3.067043 0.000000 0.000000 0.000000 -8.282781 0.976827 -8.156786 8.913262 4.560628 66.812002 -2.829295 -11.565432 13.801804 0.000000 0.000000 0.000000 -8.514968 2.456387 24.118887 3.594040 -0.886676 -18.536604 3.391058 8.345780 25.604383 -0.855905 2.106288 -35.558128 0.000000 0.000000 0.000000 -30.258807 -19.077554 12.248811 -36.147911 -9.524662 -3.517778 -9.568679 -23.292589 2.833025 0.000000 0.000000 0.000000 17.679797 24.860133 11.572528 42.710538 22.449141 1.856144 -7.199019 47.654942 -1.178058 0.000000 0.000000 0.000000 
-0.022735 0.908166 0.558089 0.154254 -15.764507 8.667566 -1.587112 -1.845792 -46.722440 -4.455230 3.110641 40.157088 9.947724 19.759988 1.755005 0.000000 0.000000 0.000000 -6.472638 1.663683 -18.837793 14.112204 -1.093128 76.084715 -6.661391 -17.714377 12.084234 0.000000 0.000000 0.000000 -7.378974 2.027007 25.720230 3.851092 -0.811674 -19.363081 2.580153 4.884557 25.431004 -1.648137 2.265733 -34.877031 0.000000 0.000000 0.000000 -28.440947 -20.879559 13.544443 -32.971647 -13.347464 -2.469871 -7.543790 -27.939754 2.936652 0.000000 0.000000 0.000000 18.355647 24.621938 11.322732 42.553399 18.021947 0.409625 -3.522492 45.731154 0.214369 0.000000 0.000000 0.000000 
-0.024999 0.922520 0.637302 -0.363568 -11.294018 7.535490 -3.705245 -3.283449 -38.975797 -2.060123 1.194885 37.271781 8.315485 17.059360 -1.705618 0.000000 0.000000 0.000000 -5.548050 2.425893 -27.401425 15.600318 -5.206794 78.051615 -9.024505 -21.900387 11.017706 0.000000 0.000000 0.000000 -5.870998 1.367231 27.561553 5.348996 -0.997523 -21.146724 0.450373 2.553279 26.574655 -1.854484 2.306131 -33.329698 0.000000 0.000000 0.000000 -27.838631 -21.271231 13.673662 -29.180818 -16.428347 -1.838994 -4.105397 -30.869384 2.319519 0.000000 0.000000 0.000000 20.786030 23.138258 10.898302 41.584516 13.278091 -1.275621 1.810106 43.194779 2.183982 0.000000 0.000000 0.000000 
-0.026822 0.929505 0.722311 -1.022553 -6.789166 5.639251 -5.263790 -3.463910 -29.281957 -0.891143 0.036190 34.809262 6.890292 13.953142 -4.847094 0.000000 0.000000 0.000000 -6.382615 2.743312 -36.706910 17.972262 -9.789195 74.224971 -11.216331 -26.231212 7.447743 0.000000 0.000000 0.000000 -3.640106 0.389651 29.433022 5.203614 -0.799794 -22.642910 -0.051952 -0.202559 26.900386 -2.481300 2.530197 -33.052374 0.000000 0.000000 0.000000 -26.922381 -22.262357 14.177225 -26.463380 -19.445760 -1.311745 -0.307373 -33.000653 1.377613 0.000000 0.000000 0.000000 20.369598 20.420531 9.189014 42.680487 9.202480 -2.682634 5.247688 40.787093 3.233698 0.000000 0.000000 0.000000 
-0.028173 0.932173 0.811755 -1.769283 -2.729498 3.625223 -4.869826 -2.528385 -20.075835 -0.772421 -0.532073 33.617545 5.676279 10.084880 -9.060035 0.000000 0.000000 0.000000 -7.367797 2.248397 -42.309574 18.078871 -9.850815 62.060764 -11.017501 -26.685618 0.769702 0.000000 0.000000 0.000000 -1.528892 -0.606530 30.125747 5.480980 -0.699131 -24.376343 -1.308012 -2.674235 27.627598 -2.738459 2.562404 -32.365666 0.000000 0.000000 0.000000 -26.146874 -22.608098 14.277833 -23.344971 -23.205138 -0.881396 2.970829 -34.262295 0.433829 0.000000 0.000000 0.000000 20.981645 18.130684 7.879821 42.187020 4.782800 -4.179675 8.961216 38.692102 4.249096 0.000000 0.000000 0.000000 
